<svg version="1.1" id="Layer_1" xmlns="http://www.w3.org/2000/svg" xmlns:xlink="http://www.w3.org/1999/xlink" x="0px" y="0px"
	 width="100%" viewBox="0 0 260 260" enable-background="new 0 0 260 260" xml:space="preserve">
<path fill="#FFFFFF" opacity="1.000000" stroke="none" 
	d="
M1.000000,70.000000 
	C1.000000,46.666668 1.000000,23.833334 1.000000,1.000000 
	C87.666664,1.000000 174.333328,1.000000 261.000000,1.000000 
	C261.000000,87.666664 261.000000,174.333328 261.000000,261.000000 
	C174.333328,261.000000 87.666664,261.000000 1.000000,261.000000 
	C1.000000,197.500000 1.000000,134.000000 1.000000,70.000000 
M258.975769,147.102951 
	C258.932861,136.057083 258.889984,125.011223 258.989014,113.037949 
	C258.989014,76.438660 258.989014,39.839367 258.989014,3.151941 
	C221.645416,3.151941 184.841324,3.151941 147.103012,3.024261 
	C136.057129,3.067151 125.011246,3.110041 113.037949,3.010973 
	C76.438652,3.010973 39.839359,3.010973 3.151952,3.010973 
	C3.151952,40.354607 3.151952,77.158707 3.024264,114.897018 
	C3.067154,125.942886 3.110045,136.988754 3.010973,148.962036 
	C3.010973,185.561340 3.010973,222.160645 3.010973,258.848053 
	C40.354614,258.848053 77.158714,258.848053 114.897034,258.975769 
	C125.942902,258.932861 136.988770,258.889984 148.962036,258.989014 
	C185.561340,258.989014 222.160645,258.989014 258.848053,258.989014 
	C258.848053,221.645370 258.848053,184.841278 258.975769,147.102951 
z"/>
<path fill="#2A7FB8" opacity="1.000000" stroke="none" 
	d="
M3.152936,148.034622 
	C3.110045,136.988754 3.067154,125.942886 3.417202,114.205154 
	C5.308253,99.551865 9.626596,86.403053 15.665736,73.826942 
	C22.696606,59.185616 32.695793,46.781483 44.628574,35.777901 
	C56.476353,24.852707 69.716965,16.230303 84.941368,11.066040 
	C94.420113,7.850761 104.277763,5.752503 113.965363,3.152931 
	C125.011246,3.110041 136.057129,3.067151 147.794876,3.417199 
	C162.448166,5.308249 175.596954,9.626609 188.173080,15.665738 
	C202.814407,22.696602 215.218552,32.695782 226.222107,44.628567 
	C237.147293,56.476349 245.769699,69.716972 250.933990,84.941376 
	C254.149277,94.420113 256.247528,104.277763 258.847076,113.965363 
	C258.889984,125.011223 258.932861,136.057083 258.584412,147.791962 
	C257.469910,152.011078 256.746765,155.541183 255.885178,158.759903 
	C254.840775,157.482651 254.004456,156.438385 253.018524,155.562561 
	C235.362747,139.879013 217.749847,124.146042 199.969528,108.604706 
	C196.222687,105.329681 191.847519,102.773544 187.492966,99.710793 
	C179.908829,88.715500 169.923691,82.073837 156.802353,80.963898 
	C137.621201,79.341347 123.987526,88.167770 114.926735,104.501976 
	C112.879364,103.789925 111.333702,103.195206 109.753952,102.711929 
	C96.284897,98.591484 81.129303,106.021957 78.511040,119.694328 
	C76.984940,127.663513 74.159981,132.170059 67.267166,136.751617 
	C52.623917,146.484772 53.870064,172.319809 75.143188,180.694092 
	C79.412651,184.491608 83.568596,187.981598 87.833214,191.333328 
	C109.021973,207.986404 130.259201,224.577850 151.432770,241.250183 
	C156.735901,245.425919 161.866760,249.820435 166.850739,254.431396 
	C160.427979,256.114624 154.231308,257.480835 148.034637,258.847076 
	C136.988770,258.889984 125.942902,258.932861 114.205154,258.582825 
	C99.551903,256.691650 86.403076,252.373459 73.826965,246.334305 
	C59.185638,239.303436 46.781506,229.304230 35.777920,217.371460 
	C24.852718,205.523682 16.230299,192.283066 11.066048,177.058655 
	C7.850775,167.579895 5.752509,157.722229 3.152936,148.034622 
z"/>
<path fill="#FFFFFF" opacity="0.000000" stroke="none" 
	d="
M113.501656,3.081952 
	C104.277763,5.752503 94.420113,7.850761 84.941368,11.066040 
	C69.716965,16.230303 56.476353,24.852707 44.628574,35.777901 
	C32.695793,46.781483 22.696606,59.185616 15.665736,73.826942 
	C9.626596,86.403053 5.308253,99.551865 3.481046,113.738037 
	C3.151952,77.158707 3.151952,40.354607 3.151952,3.010973 
	C39.839359,3.010973 76.438652,3.010973 113.501656,3.081952 
z"/>
<path fill="#FFFFFF" opacity="0.000000" stroke="none" 
	d="
M258.918030,113.501656 
	C256.247528,104.277763 254.149277,94.420113 250.933990,84.941376 
	C245.769699,69.716972 237.147293,56.476349 226.222107,44.628567 
	C215.218552,32.695782 202.814407,22.696602 188.173080,15.665738 
	C175.596954,9.626609 162.448166,5.308249 148.261993,3.481040 
	C184.841324,3.151941 221.645416,3.151941 258.989014,3.151941 
	C258.989014,39.839367 258.989014,76.438660 258.918030,113.501656 
z"/>
<path fill="#FFFFFF" opacity="0.000000" stroke="none" 
	d="
M3.081954,148.498322 
	C5.752509,157.722229 7.850775,167.579895 11.066048,177.058655 
	C16.230299,192.283066 24.852718,205.523682 35.777920,217.371460 
	C46.781506,229.304230 59.185638,239.303436 73.826965,246.334305 
	C86.403076,252.373459 99.551903,256.691650 113.738045,258.518982 
	C77.158714,258.848053 40.354614,258.848053 3.010973,258.848053 
	C3.010973,222.160645 3.010973,185.561340 3.081954,148.498322 
z"/>
<path fill="#FFFFFF" opacity="0.000000" stroke="none" 
	d="
M148.498337,258.918030 
	C154.231308,257.480835 160.427979,256.114624 167.238556,254.385178 
	C189.084167,248.498962 207.099503,237.130188 222.265228,221.777527 
	C230.481552,213.459946 237.397781,203.561371 243.483261,193.517334 
	C249.836578,183.031204 254.281418,171.440231 256.023621,159.071304 
	C256.746765,155.541183 257.469910,152.011078 258.520538,148.259064 
	C258.848053,184.841278 258.848053,221.645370 258.848053,258.989014 
	C222.160645,258.989014 185.561340,258.989014 148.498337,258.918030 
z"/>
<path fill="#FEFEFF" opacity="1.000000" stroke="none" 
	d="
M75.079765,180.322830 
	C53.870064,172.319809 52.623917,146.484772 67.267166,136.751617 
	C74.159981,132.170059 76.984940,127.663513 78.511040,119.694328 
	C81.129303,106.021957 96.284897,98.591484 109.753952,102.711929 
	C111.333702,103.195206 112.879364,103.789925 114.926735,104.501976 
	C123.987526,88.167770 137.621201,79.341347 156.802353,80.963898 
	C169.923691,82.073837 179.908829,88.715500 187.589279,100.077812 
	C193.054398,109.623138 194.762100,119.175674 193.087036,129.439087 
	C192.811096,131.129807 193.566132,133.685059 194.791077,134.813049 
	C203.654541,142.974899 206.705826,154.012085 202.658615,164.660538 
	C198.703079,175.067810 189.358231,181.159943 177.274673,181.155991 
	C147.008362,181.146103 116.741982,181.145020 86.475830,181.063538 
	C82.676498,181.053314 78.878426,180.581024 75.079765,180.322830 
z"/>
<path fill="#236793" opacity="1.000000" stroke="none" 
	d="
M75.143188,180.694092 
	C78.878426,180.581024 82.676498,181.053314 86.475830,181.063538 
	C116.741982,181.145020 147.008362,181.146103 177.274673,181.155991 
	C189.358231,181.159943 198.703079,175.067810 202.658615,164.660538 
	C206.705826,154.012085 203.654541,142.974899 194.791077,134.813049 
	C193.566132,133.685059 192.811096,131.129807 193.087036,129.439087 
	C194.762100,119.175674 193.054398,109.623138 187.858170,100.253181 
	C191.847519,102.773544 196.222687,105.329681 199.969528,108.604706 
	C217.749847,124.146042 235.362747,139.879013 253.018524,155.562561 
	C254.004456,156.438385 254.840775,157.482651 255.885178,158.759903 
	C254.281418,171.440231 249.836578,183.031204 243.483261,193.517334 
	C237.397781,203.561371 230.481552,213.459946 222.265228,221.777527 
	C207.099503,237.130188 189.084167,248.498962 167.464630,254.068176 
	C161.866760,249.820435 156.735901,245.425919 151.432770,241.250183 
	C130.259201,224.577850 109.021973,207.986404 87.833214,191.333328 
	C83.568596,187.981598 79.412651,184.491608 75.143188,180.694092 
z"/>
</svg>